# xmcd CD database file generated by Grip 3.3.1
# 
# Track frame offsets:
#       150
#       10730
#       18027
#       30895
#       42577
#       55212
#       68987
#       79047
#       92635
#       97772
#       109502
#       125615
#       140070
#       151465
#       168370
#       175835
#       195710
#       204487
#       221020
#       235370
#       252640
#       268605
#       283305
#       302532
#       312682
#       334020
# 
# Disc length: 4628 seconds
# 
# Revision: 10
# Processed by: cddbd v1.5.2PL0 Copyright (c) Steve Scherf et al.
# Submitted via: Grip 3.3.1
# 
DISCID=7012121a
DTITLE=Johnny Cash - Johnny Cash Live At Madison Square Garden
DYEAR=1969
DGENRE=Country
TTITLE0=Johnny Cash - Big River
TTITLE1=Johnny Cash - I Still Miss Someone
TTITLE2=Johnny Cash - Five Feet High And Rising
TTITLE3=Johnny Cash - Pickin Time
TTITLE4=Johnny Cash - Remember The Alamo
TTITLE5=Johnny Cash - Last Night I Had The Strangest Dream
TTITLE6=Johnny Cash - Wreck Of The Old 97
TTITLE7=Johnny Cash - The Long Black Veil
TTITLE8=Johnny Cash - The Wall
TTITLE9=Johnny Cash - Send A Picture Of Mother
TTITLE10=Johnny Cash - Folsom Prison Blues
TTITLE11=Johnny Cash and Carl Perkins - Blue Suede Shoes
TTITLE12=Johnny Cash and The Statler Brothers - Flowers On The Wall
TTITLE13=Johnny Cash and The Carter Family - Wildwood Flower
TTITLE14=Johnny Cash and The Carter Family - Worried Man Blues
TTITLE15=Johnny Cash - A Boy Named Sue
TTITLE16=Johnny Cash - Cocaine Blues
TTITLE17=Johnny Cash - Jesus Was A Carpenter
TTITLE18=Johnny Cash - The Ballad Of Ira Hayes
TTITLE19=Johnny Cash - As Long As The Grass Shall Grow
TTITLE20=Johnny Cash and Anita Carter - Sing A Travellin' Song
TTITLE21=Johnny Cash and Anita Carter - He Turned The Water Into Wine
TTITLE22=Johnny Cash and The Carter Family - Were You There When They Cruc
TTITLE22=ified My Lord
TTITLE23=Johnny Cash - Daddy Sang Bass
TTITLE24=Johnny Cash and Tommy Cash and The Carter Family and The Statler 
TTITLE24=Brothers and Carl Perkins - Finale Medley
TTITLE25=Johnny Cash - Suppertime
EXTD=(c)2002 Columbia Records/ LEGACY/ Sony Music Entertainmant\nupc 6
EXTD=96998680821\n YEAR: 2002
EXTT0=
EXTT1=
EXTT2=
EXTT3=
EXTT4=
EXTT5=
EXTT6=
EXTT7=
EXTT8=
EXTT9=
EXTT10=
EXTT11=Carl Perkins
EXTT12=The Statler Brothers
EXTT13=The Carter Family
EXTT14=The Carter Family
EXTT15=
EXTT16=
EXTT17=
EXTT18=
EXTT19=
EXTT20=
EXTT21=
EXTT22=
EXTT23=
EXTT24=
EXTT25=
PLAYORDER=
